<?xml version="1.0" encoding="UTF-8" standalone="no"?>
<!-- Created with Inkscape (http://www.inkscape.org/) -->

<svg
   width="3.1942215mm"
   height="4.75278mm"
   viewBox="0 0 3.1942215 4.75278"
   version="1.1"
   id="svg5"
   xmlns="http://www.w3.org/2000/svg"
   xmlns:svg="http://www.w3.org/2000/svg">
  <defs
     id="defs2">
    <clipPath
       clipPathUnits="userSpaceOnUse"
       id="clipPath24954">
      <rect
         style="color:#000000;overflow:visible;fill:none;fill-opacity:1;fill-rule:evenodd;stroke:none;stroke-width:0.0499996;stroke-linejoin:round;stroke-miterlimit:4;stroke-dasharray:none"
         id="rect24956"
         width="7.0850563"
         height="7.5735078"
         x="46.279179"
         y="118.97697" />
    </clipPath>
  </defs>
  <g
     id="layer1"
     transform="translate(-56.334508,-120.47087)">
    <g
       id="g46296">
      <path
         style="color:#000000;overflow:visible;fill:#000000;fill-rule:evenodd;stroke:none;stroke-width:0.05;stroke-linejoin:round;stroke-miterlimit:4;stroke-dasharray:none"
         d="m 56.334508,125.22365 c 0.54226,-0.34855 0.49929,-1.41362 0.50799,-1.79791 0.006,-0.26886 -0.0947,-2.95487 -0.0947,-2.95487 0.34452,0.263 0.45195,0.50846 0.5826,0.88511 0.34561,-0.0353 0.5895,-0.0314 0.91754,0.0236 -0.002,-0.35141 0.006,-0.35881 0.003,-0.75946 0.51,0.43546 0.5392,0.7093 0.64014,0.89646 0.43454,0.31229 0.42498,0.79905 0.48662,1.21229 0,0 0.16282,0.0909 0.15035,0.16924 -0.0945,0.59426 -0.09219,1.81281 -0.05829,1.81085 l -0.282147,0.0104 0.280456,0.49553 z"
         id="path1103" />
      <path
         style="color:#000000;overflow:visible;fill:#ffffff;fill-rule:evenodd;stroke:none;stroke-width:0.0499998;stroke-linejoin:round;stroke-miterlimit:4;stroke-dasharray:none"
         d="m 58.126172,122.16229 c 0.0443,0.2068 0.17057,0.37495 0.28649,0.49807 0.0927,-0.056 0.160696,-0.13641 0.252556,-0.20118 -0.21279,-0.10445 -0.319726,-0.18033 -0.539046,-0.29689 z"
         id="path3128" />
      <path
         style="color:#000000;overflow:visible;fill:#ffa16d;fill-opacity:1;fill-rule:evenodd;stroke:none;stroke-width:0.0499999;stroke-linejoin:round;stroke-miterlimit:4;stroke-dasharray:none"
         d="m 57.612914,122.84166 c 0.17591,0.53807 0.09772,0.89714 0.158818,1.45916 0.16029,0.10847 0.281306,0.2159 0.460366,0.27522 0.46233,0.082 0.602187,0.0186 1.089397,0.0197 -0.0709,-0.64761 0.03685,-1.49056 0.03685,-1.49056 0,0 -1.279734,-0.11702 -1.745404,-0.26349 z"
         id="path4284" />
      <g
         id="path44171">
        <path
           style="color:#000000;fill:#ffa16d;fill-rule:evenodd;stroke-width:0.15;stroke-linecap:round;stroke-linejoin:round;-inkscape-stroke:none"
           d="m 58.734353,123.53258 c 0,0 0.08508,-0.0257 0.161272,-0.0335 0.179423,-0.0184 0.551906,0.003 0.551906,0.003"
           id="path45160" />
        <path
           style="color:#000000;fill:#000000;fill-rule:evenodd;stroke-linecap:round;stroke-linejoin:round;-inkscape-stroke:none"
           d="m 58.888672,123.42383 c -0.08717,0.009 -0.170396,0.0438 -0.170396,0.0438 -0.04003,0.0117 -0.06824,0.0471 -0.05617,0.087 0.01253,0.0393 0.07477,0.0138 0.114122,10e-4 0,0 0.08127,-0.0226 0.146485,-0.0293 0.163073,-0.0167 0.520643,0.0493 0.520643,0.0493 0.0042,-0.074 0.0078,-0.14718 0.0078,-0.1484 0,0 -0.366728,-0.024 -0.5625,-0.004 z"
           id="path45162" />
      </g>
    </g>
  </g>
</svg>
