<?xml version="1.0" encoding="UTF-8" standalone="no"?>
<!-- Created with Inkscape (http://www.inkscape.org/) -->

<svg
   width="3.1942215mm"
   height="4.75278mm"
   viewBox="0 0 3.1942215 4.75278"
   version="1.1"
   id="svg5"
   sodipodi:docname="batman-left.svg"
   inkscape:version="1.1.2 (0a00cf5339, 2022-02-04)"
   xmlns:inkscape="http://www.inkscape.org/namespaces/inkscape"
   xmlns:sodipodi="http://sodipodi.sourceforge.net/DTD/sodipodi-0.dtd"
   xmlns="http://www.w3.org/2000/svg"
   xmlns:svg="http://www.w3.org/2000/svg">
  <sodipodi:namedview
     id="namedview14"
     pagecolor="#ffffff"
     bordercolor="#666666"
     borderopacity="1.0"
     inkscape:pageshadow="2"
     inkscape:pageopacity="0.0"
     inkscape:pagecheckerboard="0"
     inkscape:document-units="mm"
     showgrid="false"
     inkscape:zoom="28.302752"
     inkscape:cx="2.8442464"
     inkscape:cy="7.8614263"
     inkscape:window-width="1920"
     inkscape:window-height="990"
     inkscape:window-x="0"
     inkscape:window-y="28"
     inkscape:window-maximized="1"
     inkscape:current-layer="svg5" />
  <defs
     id="defs2">
    <clipPath
       clipPathUnits="userSpaceOnUse"
       id="clipPath24954">
      <rect
         style="color:#000000;overflow:visible;fill:none;fill-opacity:1;fill-rule:evenodd;stroke:none;stroke-width:0.0499996;stroke-linejoin:round;stroke-miterlimit:4;stroke-dasharray:none"
         id="rect24956"
         width="7.0850563"
         height="7.5735078"
         x="46.279179"
         y="118.97697" />
    </clipPath>
  </defs>
  <g
     id="layer1"
     transform="translate(-56.334508,-120.47087)">
    <g
       id="g46296"
       transform="matrix(-1,0,0,1,115.86324,0)">
      <path
         style="color:#000000;overflow:visible;fill:#000000;fill-rule:evenodd;stroke:none;stroke-width:0.05;stroke-linejoin:round;stroke-miterlimit:4;stroke-dasharray:none"
         d="m 56.334508,125.22365 c 0.54226,-0.34855 0.49929,-1.41362 0.50799,-1.79791 0.006,-0.26886 -0.07556,-2.76113 -0.07556,-2.76113 0.31222,0.29996 0.389829,0.3639 0.563461,0.69137 0.34561,-0.0353 0.5895,-0.0314 0.91754,0.0236 -0.002,-0.35141 0.0027,-0.22192 -2.7e-4,-0.62257 0.475324,0.45281 0.412871,0.60716 0.521338,0.79055 0.395704,0.36514 0.576721,0.83103 0.649262,1.22944 l 0.10978,0.12111 c -0.0945,0.59426 -0.09219,1.81281 -0.05829,1.81085 l -0.282147,0.0104 0.280456,0.49553 z"
         id="path1103"
         sodipodi:nodetypes="ccccccccccccc" />
      <path
         style="color:#000000;overflow:visible;fill:#ffffff;fill-rule:evenodd;stroke:none;stroke-width:0.0499998;stroke-linejoin:round;stroke-miterlimit:4;stroke-dasharray:none"
         d="m 58.11775,122.2422 c 0.06675,0.22096 0.37416,0.46797 0.495647,0.55449 0.09518,-0.0575 0.164997,-0.14006 0.259316,-0.20656 -0.218485,-0.10725 -0.529774,-0.22826 -0.754963,-0.34793 z"
         id="path3128"
         sodipodi:nodetypes="cccc" />
      <path
         style="color:#000000;overflow:visible;fill:#ffa16d;fill-opacity:1;fill-rule:evenodd;stroke:none;stroke-width:0.0499999;stroke-linejoin:round;stroke-miterlimit:4;stroke-dasharray:none"
         d="m 57.640019,122.70644 c 0.17591,0.53807 0.07061,1.03236 0.131713,1.59438 0.16029,0.10847 0.281306,0.2159 0.460366,0.27522 0.46233,0.082 0.602187,0.0186 1.089397,0.0197 -0.0709,-0.64761 0.06838,-1.56063 0.06838,-1.56063 0,0 -0.257873,0.0494 -0.554814,0.0145 -0.409132,-0.0481 -0.925211,-0.2583 -1.195042,-0.34317 z"
         id="path4284"
         sodipodi:nodetypes="ccccccc" />
      <g
         id="path44171">
        <path
           style="color:#000000;fill:#ffa16d;fill-rule:evenodd;stroke-width:0.15;stroke-linecap:round;stroke-linejoin:round;-inkscape-stroke:none"
           d="m 58.734353,123.53258 c 0,0 0.08508,-0.0257 0.161272,-0.0335 0.179423,-0.0184 0.551906,0.003 0.551906,0.003"
           id="path45160" />
        <path
           style="color:#000000;fill:#000000;fill-rule:evenodd;stroke-linecap:round;stroke-linejoin:round;-inkscape-stroke:none"
           d="m 58.729159,123.48169 c -0.04003,0.0117 -0.07912,0.033 -0.06705,0.0729 0.01253,0.0393 0.07477,0.0138 0.114122,10e-4 0,0 0.181427,-0.0323 0.247175,-0.034 0.163875,-0.004 0.419953,0.054 0.419953,0.054 0.0042,-0.074 0.0042,-0.0723 0.0042,-0.0735 0,0 -0.217194,-0.093 -0.413854,-0.0859 -0.110852,0.004 -0.199965,0.0404 -0.304543,0.0655 z"
           id="path45162"
           sodipodi:nodetypes="cccsccsc" />
      </g>
    </g>
  </g>
</svg>
