<?xml version="1.0" encoding="utf-8"?>
<svg viewBox="0 0 1615 190" xmlns="http://www.w3.org/2000/svg" xmlns:bx="https://boxy-svg.com">
  <defs>
    <radialGradient id="gradient-2" gradientUnits="userSpaceOnUse" cx="152.286" cy="126.898" r="330" gradientTransform="matrix(0.638467, -1.091841, 1.097297, 0.641658, 52.727183, 218.434182)">
      <stop offset="0" style="stop-color: rgb(0, 170, 237);"/>
      <stop offset="1" style="stop-color: rgb(0, 145, 202);"/>
    </radialGradient>
    <linearGradient id="gradient-3" gradientUnits="userSpaceOnUse" x1="330" y1="0" x2="330" y2="660" gradientTransform="matrix(0.980745, -0.195296, 0.195753, 0.983035, -58.663244, 70.697931)">
      <stop offset="0" style="stop-color: rgb(152, 226, 255);"/>
      <stop offset="1" style="stop-color: rgb(78, 193, 239);"/>
    </linearGradient>
    <bx:grid x="0" y="0" width="10" height="10"/>
  </defs>
  <path d="M 281.068 118.813 Q 282.472 118.813 283.486 119.983 Q 284.5 121.153 284.5 122.713 Q 284.5 126.145 279.196 129.421 Q 267.964 136.129 255.484 136.129 Q 238.168 136.129 228.184 125.677 Q 218.2 115.225 218.2 96.973 Q 218.2 85.273 222.646 76.303 Q 227.092 67.333 235.126 62.419 Q 243.16 57.505 253.612 57.505 Q 268.276 57.505 276.778 66.943 Q 285.28 76.381 285.28 92.917 Q 285.28 95.725 284.032 97.051 Q 282.784 98.377 279.976 98.377 L 228.028 98.377 Q 228.496 112.729 235.516 120.217 Q 242.536 127.705 255.328 127.705 Q 262.036 127.705 266.56 125.911 Q 271.084 124.117 276.232 121.153 Q 279.664 118.813 281.068 118.813 Z M 253.612 65.305 Q 242.692 65.305 236.14 72.169 Q 229.588 79.033 228.34 91.357 L 276.544 91.357 Q 276.232 78.877 270.304 72.091 Q 264.376 65.305 253.612 65.305 Z M 335.036 57.505 Q 348.764 57.505 355.55 64.681 Q 362.336 71.857 362.336 86.365 L 362.336 130.825 Q 362.336 133.009 361.088 134.335 Q 359.84 135.661 357.656 135.661 Q 355.472 135.661 354.224 134.335 Q 352.976 133.009 352.976 130.825 L 352.976 121.465 Q 349.7 128.485 343.46 132.307 Q 337.22 136.129 329.108 136.129 Q 321.776 136.129 315.692 133.165 Q 309.608 130.201 306.098 124.897 Q 302.588 119.593 302.588 113.197 Q 302.588 104.773 306.956 100.093 Q 311.324 95.413 321.464 93.385 Q 331.604 91.357 349.7 91.357 L 352.976 91.357 L 352.976 85.585 Q 352.976 75.289 348.764 70.531 Q 344.552 65.773 335.504 65.773 Q 323.96 65.773 313.508 71.857 Q 313.04 72.169 311.09 73.495 Q 309.14 74.821 307.736 74.821 Q 306.176 74.821 305.162 73.651 Q 304.148 72.481 304.148 70.765 Q 304.148 67.333 309.608 64.057 Q 315.068 60.937 321.776 59.221 Q 328.484 57.505 335.036 57.505 Z M 329.888 127.861 Q 340.028 127.861 346.502 120.997 Q 352.976 114.133 352.976 103.525 L 352.976 98.377 L 350.012 98.377 Q 335.036 98.377 327.08 99.625 Q 319.124 100.873 315.848 103.915 Q 312.572 106.957 312.572 112.729 Q 312.572 119.281 317.564 123.571 Q 322.556 127.861 329.888 127.861 Z M 411.633 136.129 Q 405.081 136.129 398.763 134.335 Q 392.445 132.541 387.609 129.421 Q 384.645 127.393 383.475 125.911 Q 382.305 124.429 382.305 122.557 Q 382.305 120.997 383.319 119.905 Q 384.333 118.813 385.737 118.813 Q 387.141 118.813 390.573 121.153 Q 395.097 124.117 399.855 125.989 Q 404.613 127.861 411.789 127.861 Q 420.993 127.861 426.141 124.507 Q 431.289 121.153 431.289 114.913 Q 431.289 111.169 429.417 108.751 Q 427.545 106.333 423.177 104.539 Q 418.809 102.745 410.697 101.029 Q 396.813 97.909 390.963 92.995 Q 385.113 88.081 385.113 79.813 Q 385.113 69.829 392.913 63.667 Q 400.713 57.505 413.193 57.505 Q 419.277 57.505 424.815 59.065 Q 430.353 60.625 434.409 63.589 Q 439.869 67.333 439.869 70.921 Q 439.869 72.481 438.855 73.651 Q 437.841 74.821 436.437 74.821 Q 434.877 74.821 431.601 72.325 Q 427.389 69.361 423.255 67.567 Q 419.121 65.773 412.725 65.773 Q 404.613 65.773 399.777 69.439 Q 394.941 73.105 394.941 79.345 Q 394.941 82.933 396.579 85.273 Q 398.217 87.613 402.195 89.407 Q 406.173 91.201 413.661 92.917 Q 424.425 95.413 430.197 98.221 Q 435.969 101.029 438.465 104.929 Q 440.961 108.829 440.961 114.913 Q 440.961 124.429 432.927 130.279 Q 424.893 136.129 411.633 136.129 Z M 515.689 60.625 Q 516.937 57.817 519.745 57.817 Q 521.461 57.817 522.865 59.065 Q 524.269 60.313 524.269 62.029 Q 524.269 63.121 523.801 64.057 L 479.653 160.933 Q 478.405 163.585 475.597 163.585 Q 473.881 163.585 472.555 162.493 Q 471.229 161.401 471.229 159.685 Q 471.229 158.749 471.697 157.813 L 482.773 133.633 L 450.793 64.057 Q 450.325 63.121 450.325 62.185 Q 450.325 60.313 451.963 58.987 Q 453.601 57.661 455.473 57.661 Q 458.437 57.661 459.529 60.469 L 487.609 123.493 L 515.689 60.625 Z" style="fill: rgb(132, 134, 136);"/>
  <path d="M 570.603 136.129 Q 559.527 136.129 551.181 131.293 Q 542.835 126.457 538.233 117.565 Q 533.631 108.673 533.631 96.973 Q 533.631 85.117 538.389 76.069 Q 543.147 67.021 551.727 62.029 Q 560.307 57.037 571.383 57.037 Q 577.311 57.037 583.317 58.753 Q 589.323 60.469 594.003 63.433 Q 598.995 66.865 598.995 71.389 Q 598.995 74.041 597.591 75.835 Q 596.187 77.629 594.003 77.629 Q 592.599 77.629 591.195 76.927 Q 589.791 76.225 587.607 74.821 Q 583.707 72.325 580.353 70.999 Q 576.999 69.673 572.319 69.673 Q 561.711 69.673 555.861 76.849 Q 550.011 84.025 550.011 96.817 Q 550.011 109.609 555.783 116.551 Q 561.555 123.493 572.163 123.493 Q 576.843 123.493 580.431 122.089 Q 584.019 120.685 587.763 118.345 Q 589.479 117.253 591.195 116.473 Q 592.911 115.693 594.315 115.693 Q 596.499 115.693 597.903 117.487 Q 599.307 119.281 599.307 121.933 Q 599.307 124.117 598.137 125.911 Q 596.967 127.705 594.159 129.577 Q 589.479 132.697 583.239 134.413 Q 576.999 136.129 570.603 136.129 Z M 653.279 57.349 Q 660.767 56.881 660.767 63.745 Q 660.767 67.177 659.051 68.893 Q 657.335 70.609 653.123 70.921 L 648.443 71.389 Q 638.615 72.325 633.857 78.253 Q 629.099 84.181 629.099 92.605 L 629.099 128.329 Q 629.099 132.073 626.915 133.945 Q 624.731 135.817 621.299 135.817 Q 617.867 135.817 615.605 133.945 Q 613.343 132.073 613.343 128.329 L 613.343 64.837 Q 613.343 61.249 615.605 59.299 Q 617.867 57.349 621.299 57.349 Q 624.419 57.349 626.525 59.299 Q 628.631 61.249 628.631 64.681 L 628.631 72.169 Q 631.751 65.305 637.679 61.717 Q 643.607 58.129 651.095 57.505 L 653.279 57.349 Z M 729.248 62.029 Q 730.184 59.689 731.978 58.597 Q 733.772 57.505 735.8 57.505 Q 738.764 57.505 741.026 59.533 Q 743.288 61.561 743.288 64.369 Q 743.288 65.929 742.664 67.333 L 699.296 159.373 Q 698.36 161.557 696.566 162.727 Q 694.772 163.897 692.744 163.897 Q 689.936 163.897 687.674 162.025 Q 685.412 160.153 685.412 157.345 Q 685.412 156.097 686.192 154.225 L 696.956 131.293 L 666.848 67.333 Q 666.224 66.085 666.224 64.525 Q 666.224 61.561 668.72 59.533 Q 671.216 57.505 674.336 57.505 Q 679.016 57.505 681.044 61.873 L 705.224 115.537 L 729.248 62.029 Z M 781.506 136.129 Q 765.594 136.129 755.454 129.577 Q 752.646 127.861 751.476 125.989 Q 750.306 124.117 750.306 121.777 Q 750.306 119.281 751.71 117.565 Q 753.114 115.849 755.298 115.849 Q 757.326 115.849 761.694 118.345 Q 766.374 120.841 770.82 122.401 Q 775.266 123.961 781.974 123.961 Q 789.462 123.961 793.674 121.309 Q 797.886 118.657 797.886 113.821 Q 797.886 110.701 796.248 108.829 Q 794.61 106.957 790.554 105.475 Q 786.498 103.993 778.542 102.277 Q 764.814 99.313 758.808 94.243 Q 752.802 89.173 752.802 80.437 Q 752.802 73.729 756.702 68.347 Q 760.602 62.965 767.466 60.001 Q 774.33 57.037 783.066 57.037 Q 789.306 57.037 795.234 58.675 Q 801.162 60.313 805.686 63.433 Q 810.834 66.865 810.834 71.389 Q 810.834 73.885 809.352 75.601 Q 807.87 77.317 805.842 77.317 Q 804.438 77.317 803.034 76.693 Q 801.63 76.069 799.29 74.665 Q 795.078 72.169 791.412 70.765 Q 787.746 69.361 782.286 69.361 Q 775.734 69.361 771.756 72.169 Q 767.778 74.977 767.778 79.813 Q 767.778 84.181 771.444 86.599 Q 775.11 89.017 785.25 91.201 Q 795.702 93.385 801.63 96.193 Q 807.558 99.001 810.132 103.135 Q 812.706 107.269 812.706 113.665 Q 812.706 123.805 804.204 129.967 Q 795.702 136.129 781.506 136.129 Z M 866.685 123.805 Q 870.117 124.117 871.599 125.599 Q 873.081 127.081 873.081 129.733 Q 873.081 132.853 870.663 134.491 Q 868.245 136.129 863.565 135.817 L 859.353 135.505 Q 846.717 134.569 840.477 127.783 Q 834.237 120.997 834.237 107.737 L 834.237 71.077 L 824.877 71.077 Q 818.013 71.077 818.013 64.993 Q 818.013 62.185 819.807 60.547 Q 821.601 58.909 824.877 58.909 L 834.237 58.909 L 834.237 42.841 Q 834.237 39.253 836.343 37.225 Q 838.449 35.197 842.037 35.197 Q 845.625 35.197 847.809 37.225 Q 849.993 39.253 849.993 42.841 L 849.993 58.909 L 865.437 58.909 Q 868.713 58.909 870.507 60.547 Q 872.301 62.185 872.301 64.993 Q 872.301 67.957 870.507 69.517 Q 868.713 71.077 865.437 71.077 L 849.993 71.077 L 849.993 108.829 Q 849.993 116.161 853.035 119.593 Q 856.077 123.025 862.317 123.493 L 866.685 123.805 Z M 916.45 57.037 Q 931.582 57.037 938.992 64.681 Q 946.402 72.325 946.402 87.925 L 946.402 128.329 Q 946.402 131.917 944.374 133.867 Q 942.346 135.817 938.758 135.817 Q 935.326 135.817 933.298 133.789 Q 931.27 131.761 931.27 128.329 L 931.27 122.557 Q 928.306 129.109 922.456 132.619 Q 916.606 136.129 908.806 136.129 Q 901.318 136.129 895.078 133.087 Q 888.838 130.045 885.328 124.585 Q 881.818 119.125 881.818 112.417 Q 881.818 104.149 886.108 99.391 Q 890.398 94.633 900.304 92.605 Q 910.21 90.577 927.526 90.577 L 931.114 90.577 L 931.114 86.053 Q 931.114 77.317 927.526 73.417 Q 923.938 69.517 915.982 69.517 Q 910.522 69.517 905.686 70.921 Q 900.85 72.325 895.078 74.977 Q 890.866 77.317 889.15 77.317 Q 886.81 77.317 885.328 75.601 Q 883.846 73.885 883.846 71.233 Q 883.846 68.893 885.172 67.099 Q 886.498 65.305 889.462 63.589 Q 894.922 60.625 902.254 58.831 Q 909.586 57.037 916.45 57.037 Z M 911.614 124.429 Q 920.194 124.429 925.654 118.579 Q 931.114 112.729 931.114 103.525 L 931.114 99.469 L 928.306 99.469 Q 916.138 99.469 909.586 100.561 Q 903.034 101.653 900.226 104.227 Q 897.418 106.801 897.418 111.637 Q 897.418 117.253 901.474 120.841 Q 905.53 124.429 911.614 124.429 Z M 975.885 135.817 Q 972.453 135.817 970.191 133.945 Q 967.929 132.073 967.929 128.329 L 967.929 31.921 Q 967.929 28.177 970.191 26.227 Q 972.453 24.277 975.885 24.277 Q 979.317 24.277 981.501 26.227 Q 983.685 28.177 983.685 31.921 L 983.685 128.329 Q 983.685 132.073 981.501 133.945 Q 979.317 135.817 975.885 135.817 Z M 1013.63 135.817 Q 1010.198 135.817 1007.936 133.945 Q 1005.674 132.073 1005.674 128.329 L 1005.674 31.921 Q 1005.674 28.177 1007.936 26.227 Q 1010.198 24.277 1013.63 24.277 Q 1017.062 24.277 1019.246 26.227 Q 1021.43 28.177 1021.43 31.921 L 1021.43 128.329 Q 1021.43 132.073 1019.246 133.945 Q 1017.062 135.817 1013.63 135.817 Z M 1076.5 136.129 Q 1065.268 136.129 1056.766 131.293 Q 1048.264 126.457 1043.662 117.487 Q 1039.06 108.517 1039.06 96.661 Q 1039.06 84.649 1043.662 75.679 Q 1048.264 66.709 1056.766 61.873 Q 1065.268 57.037 1076.5 57.037 Q 1087.732 57.037 1096.234 61.873 Q 1104.736 66.709 1109.338 75.679 Q 1113.94 84.649 1113.94 96.661 Q 1113.94 108.517 1109.338 117.487 Q 1104.736 126.457 1096.234 131.293 Q 1087.732 136.129 1076.5 136.129 Z M 1076.5 123.649 Q 1086.952 123.649 1092.49 116.785 Q 1098.028 109.921 1098.028 96.661 Q 1098.028 83.557 1092.412 76.615 Q 1086.796 69.673 1076.5 69.673 Q 1066.204 69.673 1060.588 76.615 Q 1054.972 83.557 1054.972 96.661 Q 1054.972 109.921 1060.51 116.785 Q 1066.048 123.649 1076.5 123.649 Z M 1194.438 57.349 Q 1198.026 57.349 1200.132 59.455 Q 1202.238 61.561 1202.238 64.993 L 1202.238 128.953 Q 1202.238 146.425 1192.956 155.317 Q 1183.674 164.209 1165.578 164.209 Q 1148.73 164.209 1137.498 157.813 Q 1131.726 154.537 1131.726 150.013 Q 1131.726 147.361 1133.208 145.645 Q 1134.69 143.929 1136.874 143.929 Q 1138.902 143.929 1143.27 146.269 Q 1148.886 148.921 1153.722 150.403 Q 1158.558 151.885 1165.266 151.885 Q 1186.794 151.885 1186.794 130.201 L 1186.794 118.189 Q 1183.518 125.053 1176.81 128.875 Q 1170.102 132.697 1161.21 132.697 Q 1151.226 132.697 1143.426 128.017 Q 1135.626 123.337 1131.336 114.757 Q 1127.046 106.177 1127.046 94.945 Q 1127.046 83.713 1131.414 75.133 Q 1135.782 66.553 1143.504 61.795 Q 1151.226 57.037 1161.21 57.037 Q 1169.946 57.037 1176.576 60.781 Q 1183.206 64.525 1186.638 71.389 L 1186.638 64.837 Q 1186.638 61.405 1188.744 59.377 Q 1190.85 57.349 1194.438 57.349 Z M 1164.954 120.217 Q 1175.094 120.217 1180.866 113.509 Q 1186.638 106.801 1186.638 94.945 Q 1186.638 83.245 1180.944 76.459 Q 1175.25 69.673 1164.954 69.673 Q 1154.658 69.673 1148.808 76.381 Q 1142.958 83.089 1142.958 94.945 Q 1142.958 106.801 1148.886 113.509 Q 1154.814 120.217 1164.954 120.217 Z M 1264.164 57.349 Q 1271.652 56.881 1271.652 63.745 Q 1271.652 67.177 1269.936 68.893 Q 1268.22 70.609 1264.008 70.921 L 1259.328 71.389 Q 1249.5 72.325 1244.742 78.253 Q 1239.984 84.181 1239.984 92.605 L 1239.984 128.329 Q 1239.984 132.073 1237.8 133.945 Q 1235.616 135.817 1232.184 135.817 Q 1228.752 135.817 1226.49 133.945 Q 1224.228 132.073 1224.228 128.329 L 1224.228 64.837 Q 1224.228 61.249 1226.49 59.299 Q 1228.752 57.349 1232.184 57.349 Q 1235.304 57.349 1237.41 59.299 Q 1239.516 61.249 1239.516 64.681 L 1239.516 72.169 Q 1242.636 65.305 1248.564 61.717 Q 1254.492 58.129 1261.98 57.505 L 1264.164 57.349 Z M 1312.835 57.037 Q 1327.967 57.037 1335.377 64.681 Q 1342.787 72.325 1342.787 87.925 L 1342.787 128.329 Q 1342.787 131.917 1340.759 133.867 Q 1338.731 135.817 1335.143 135.817 Q 1331.711 135.817 1329.683 133.789 Q 1327.655 131.761 1327.655 128.329 L 1327.655 122.557 Q 1324.691 129.109 1318.841 132.619 Q 1312.991 136.129 1305.191 136.129 Q 1297.703 136.129 1291.463 133.087 Q 1285.223 130.045 1281.713 124.585 Q 1278.203 119.125 1278.203 112.417 Q 1278.203 104.149 1282.493 99.391 Q 1286.783 94.633 1296.689 92.605 Q 1306.595 90.577 1323.911 90.577 L 1327.499 90.577 L 1327.499 86.053 Q 1327.499 77.317 1323.911 73.417 Q 1320.323 69.517 1312.367 69.517 Q 1306.907 69.517 1302.071 70.921 Q 1297.235 72.325 1291.463 74.977 Q 1287.251 77.317 1285.535 77.317 Q 1283.195 77.317 1281.713 75.601 Q 1280.231 73.885 1280.231 71.233 Q 1280.231 68.893 1281.557 67.099 Q 1282.883 65.305 1285.847 63.589 Q 1291.307 60.625 1298.639 58.831 Q 1305.971 57.037 1312.835 57.037 Z M 1307.999 124.429 Q 1316.579 124.429 1322.039 118.579 Q 1327.499 112.729 1327.499 103.525 L 1327.499 99.469 L 1324.691 99.469 Q 1312.523 99.469 1305.971 100.561 Q 1299.419 101.653 1296.611 104.227 Q 1293.803 106.801 1293.803 111.637 Q 1293.803 117.253 1297.859 120.841 Q 1301.915 124.429 1307.999 124.429 Z M 1405.186 57.037 Q 1415.014 57.037 1422.736 62.029 Q 1430.458 67.021 1434.748 76.069 Q 1439.038 85.117 1439.038 96.973 Q 1439.038 108.673 1434.826 117.565 Q 1430.614 126.457 1422.892 131.293 Q 1415.17 136.129 1405.186 136.129 Q 1396.606 136.129 1390.054 132.463 Q 1383.502 128.797 1380.07 121.933 L 1380.07 156.721 Q 1380.07 159.997 1377.964 161.947 Q 1375.858 163.897 1372.426 163.897 Q 1368.838 163.897 1366.576 161.869 Q 1364.314 159.841 1364.314 156.409 L 1364.314 64.993 Q 1364.314 61.561 1366.498 59.455 Q 1368.682 57.349 1372.27 57.349 Q 1375.702 57.349 1377.886 59.455 Q 1380.07 61.561 1380.07 64.993 L 1380.07 71.389 Q 1383.502 64.525 1390.054 60.781 Q 1396.606 57.037 1405.186 57.037 Z M 1401.442 123.649 Q 1411.738 123.649 1417.354 116.707 Q 1422.97 109.765 1422.97 96.973 Q 1422.97 84.025 1417.276 76.849 Q 1411.582 69.673 1401.442 69.673 Q 1391.146 69.673 1385.608 76.693 Q 1380.07 83.713 1380.07 96.661 Q 1380.07 109.609 1385.608 116.629 Q 1391.146 123.649 1401.442 123.649 Z M 1497.701 57.037 Q 1524.845 57.037 1524.845 87.769 L 1524.845 128.329 Q 1524.845 131.761 1522.661 133.789 Q 1520.477 135.817 1516.889 135.817 Q 1513.301 135.817 1511.195 133.789 Q 1509.089 131.761 1509.089 128.329 L 1509.089 87.925 Q 1509.089 78.565 1505.267 74.197 Q 1501.445 69.829 1493.333 69.829 Q 1483.817 69.829 1478.045 75.757 Q 1472.273 81.685 1472.273 91.669 L 1472.273 128.329 Q 1472.273 131.761 1470.167 133.789 Q 1468.061 135.817 1464.473 135.817 Q 1460.885 135.817 1458.701 133.789 Q 1456.517 131.761 1456.517 128.329 L 1456.517 31.765 Q 1456.517 28.333 1458.779 26.305 Q 1461.041 24.277 1464.629 24.277 Q 1468.061 24.277 1470.167 26.227 Q 1472.273 28.177 1472.273 31.453 L 1472.273 70.453 Q 1476.173 63.901 1482.725 60.469 Q 1489.277 57.037 1497.701 57.037 Z M 1600.502 62.029 Q 1601.438 59.689 1603.232 58.597 Q 1605.026 57.505 1607.054 57.505 Q 1610.018 57.505 1612.28 59.533 Q 1614.542 61.561 1614.542 64.369 Q 1614.542 65.929 1613.918 67.333 L 1570.55 159.373 Q 1569.614 161.557 1567.82 162.727 Q 1566.026 163.897 1563.998 163.897 Q 1561.19 163.897 1558.928 162.025 Q 1556.666 160.153 1556.666 157.345 Q 1556.666 156.097 1557.446 154.225 L 1568.21 131.293 L 1538.102 67.333 Q 1537.478 66.085 1537.478 64.525 Q 1537.478 61.561 1539.974 59.533 Q 1542.47 57.505 1545.59 57.505 Q 1550.27 57.505 1552.298 61.873 L 1576.478 115.537 L 1600.502 62.029 Z" style="fill: rgb(132, 134, 136);"/>
  <g transform="matrix(0.276515, 0, 0, 0.276515, 4, 3.800003)">
    <circle style="stroke-width: 20px; fill: url('#gradient-2'); stroke: url('#gradient-3');" cx="330" cy="330" r="330"/>
    <g transform="matrix(1, 0, 0, 1, 76.346565, 87.309868)">
      <path d="M 254.298 60.603 L 411.612 151.429 L 411.612 333.079 L 254.298 423.905 L 96.984 333.08 L 96.984 151.429 Z" style="fill: none; stroke: rgb(212, 243, 255); stroke-width: 28.9315px;" bx:shape="n-gon 254.298 242.254 181.651 181.651 6 0 1@eafcc436"/>
      <line style="fill: rgb(216, 216, 216); stroke: rgb(212, 243, 255); stroke-width: 28.9315px;" x1="254.661" y1="72.899" x2="254.661" y2="-35.595"/>
      <circle style="stroke: rgb(212, 243, 255); fill: rgb(78, 194, 239); stroke-width: 28.9315px;" cx="254.661" cy="58.259" r="42.5"/>
      <line style="fill: rgb(216, 216, 216); stroke: rgb(212, 243, 255); transform-origin: 442.48px 126.985px; stroke-width: 28.9315px;" x1="422.321" y1="175.831" x2="476.568" y2="81.872" transform="matrix(0.866025, 0.5, -0.5, 0.866025, 0, -0.000001)"/>
      <circle style="stroke: rgb(212, 243, 255); fill: rgb(78, 194, 239); transform-box: fill-box; transform-origin: 50% 50%; stroke-width: 28.9315px;" cx="257.593" cy="8.852" r="42.5" transform="matrix(0.5, 0.866025, -0.866025, 0.5, 155.686195, 143.033507)"/>
      <line style="fill: rgb(216, 216, 216); stroke: rgb(212, 243, 255); transform-origin: 450.144px 346.898px; stroke-width: 28.9315px;" x1="429.985" y1="395.744" x2="484.231" y2="301.785" transform="matrix(0, 1, -1, 0, -0.000028, -0.000014)"/>
      <circle style="stroke: rgb(212, 243, 255); fill: rgb(78, 194, 239); transform-origin: 257.593px 8.852px; stroke-width: 28.9315px;" cx="257.593" cy="8.852" r="42.5" transform="matrix(-0.5, 0.866025, -0.866025, -0.5, 156.382853, 325.207039)"/>
      <line style="fill: rgb(216, 216, 216); stroke: rgb(212, 243, 255); transform-origin: 261.118px 464.067px; stroke-width: 28.9315px;" x1="240.959" y1="512.913" x2="295.206" y2="418.954" transform="matrix(-0.866025, 0.5, -0.5, -0.866025, -0.000027, 0.000076)"/>
      <circle style="stroke: rgb(212, 243, 255); fill: rgb(78, 194, 239); transform-origin: -254.154px -426.328px; stroke-width: 28.9315px;" cx="-254.154" cy="-426.328" r="42.5" transform="matrix(-1, 0, 0, -1, 508.307953, 852.655701)"/>
      <line style="fill: rgb(216, 216, 216); stroke: rgb(212, 243, 255); transform-origin: 66.142px 361.023px; stroke-width: 28.9315px;" x1="45.983" y1="409.868" x2="100.23" y2="315.91" transform="matrix(-0.866025, -0.5, 0.5, -0.866025, -0.000001, -0.000034)"/>
      <circle style="stroke: rgb(212, 243, 255); fill: rgb(78, 194, 239); transform-origin: 257.593px 8.852px; stroke-width: 28.9315px;" cx="257.593" cy="8.852" r="42.5" transform="matrix(-0.5, -0.866025, 0.866025, -0.5, -162.249325, 327.268597)"/>
      <line style="fill: rgb(216, 216, 216); stroke: rgb(212, 243, 255); transform-origin: 59.179px 136.68px; stroke-width: 28.9315px;" x1="39.02" y1="185.526" x2="93.267" y2="91.567" transform="matrix(0, -1, 1, 0, -0.000023, 0)"/>
      <circle style="stroke: rgb(212, 243, 255); fill: rgb(78, 194, 239); transform-origin: 571.707px 323.849px; stroke-width: 28.9315px;" cx="571.707" cy="323.849" r="42.5" transform="matrix(0.5, -0.866025, 0.866025, 0.5, -476.364784, -174.331767)"/>
    </g>
  </g>
</svg>